# Blender v2.83.2 OBJ File: 'obj.blend'
# www.blender.org
mtllib handle.003.mtl
o handle.003_Cube.013
v -0.107970 -1.234559 -0.366538
v -0.107970 -1.234558 0.393408
v -0.107970 -2.014612 -0.366538
v -0.107970 -2.014612 0.393408
v -0.114909 -1.994636 0.383437
v -0.114909 -1.994636 -0.369889
v 2.464306 -1.994636 0.383436
v 2.464306 -1.994636 -0.369889
vt 0.000000 0.000000
vt 1.000000 0.000000
vt 1.000000 1.000000
vt 0.000000 1.000000
vt 0.125000 0.500000
vt 0.375000 0.500000
vt 0.375000 0.750000
vt 0.125000 0.750000
vn 1.0000 0.0000 0.0000
vn 0.0000 -1.0000 0.0000
usemtl None
s off
f 1/1/1 2/2/1 4/3/1 3/4/1
f 6/5/2 8/6/2 7/7/2 5/8/2
