# Blender v2.83.2 OBJ File: ''
# www.blender.org
mtllib body.mtl
v 0.361407 0.463623 0.584273
v 0.361407 0.463623 0.531558
v 0.361407 0.352663 0.584273
v 0.647552 0.463623 0.531558
v 0.361407 0.352663 0.531558
v 0.617078 0.352663 0.584273
v 0.647552 0.463623 0.584273
v 0.647552 -0.425939 0.584273
v 0.617078 0.352663 0.531558
v 0.617078 -0.320358 0.584273
v 0.647552 -0.425939 0.531558
v 0.617078 -0.320358 0.531558
v 0.361407 -0.320358 0.584273
v 0.361407 -0.425939 0.531558
v 0.361407 -0.425939 0.584273
v 0.361407 -0.320358 0.531558
v 0.654141 0.450491 -0.667703
v -0.663729 -0.412714 -0.667703
v -0.663729 0.450491 -0.667703
v 0.654141 -0.412714 -0.667703
v -0.663729 0.463670 0.531558
v 0.654141 0.452211 -0.667590
v 0.654141 0.463670 0.531558
v -0.663729 -0.414434 -0.667590
v -0.663729 0.452211 -0.667590
v 0.654141 -0.414434 -0.667590
v -0.663729 -0.416125 -0.667254
v -0.663729 0.453902 -0.667254
v 0.654141 0.453902 -0.667254
v 0.654141 -0.416125 -0.667254
v -0.663729 -0.417757 -0.666700
v -0.663729 0.455534 -0.666700
v 0.654141 0.455534 -0.666700
v 0.654141 -0.417757 -0.666700
v -0.663729 -0.419303 -0.665938
v -0.663729 0.457080 -0.665938
v 0.654141 0.457080 -0.665938
v 0.654141 -0.419303 -0.665938
v -0.663729 -0.420736 -0.664980
v -0.663729 0.458514 -0.664980
v 0.654141 0.458514 -0.664980
v 0.654141 -0.420736 -0.664980
v -0.663729 -0.422032 -0.663843
v -0.663729 0.459810 -0.663843
v 0.654141 0.459810 -0.663843
v 0.654141 -0.422032 -0.663843
v -0.663729 -0.423169 -0.662547
v -0.663729 0.460946 -0.662547
v 0.654141 0.460946 -0.662547
v 0.654141 -0.423169 -0.662547
v -0.663729 -0.424127 -0.661114
v -0.663729 0.461904 -0.661114
v 0.654141 0.461904 -0.661114
v 0.654141 -0.424127 -0.661114
v -0.663729 -0.424889 -0.659568
v -0.663729 0.462667 -0.659568
v 0.654141 0.462667 -0.659568
v 0.654141 -0.424889 -0.659568
v -0.663729 -0.425443 -0.657935
v -0.663729 0.463221 -0.657935
v 0.654141 0.463221 -0.657935
v 0.654141 -0.425443 -0.657935
v -0.663729 -0.425780 -0.656245
v -0.663729 0.463557 -0.656245
v 0.654141 0.463557 -0.656245
v 0.654141 -0.425780 -0.656245
v -0.663729 -0.425849 -0.655192
v -0.663729 0.463670 -0.654524
v 0.654141 0.463670 -0.654524
v 0.654141 -0.425849 0.531558
v -0.663729 -0.425849 0.531558
v 0.654141 -0.425849 -0.655192
v 0.313912 -0.326070 0.531558
v -0.663729 -0.425892 -0.654524
v -0.563950 -0.326070 0.531558
v -0.563950 0.363892 0.531558
v 0.654141 -0.425892 -0.654524
v 0.313912 0.363892 0.531558
v 0.313912 0.363892 -0.150439
v 0.313912 -0.326070 -0.150439
v -0.563950 0.363892 -0.150439
v -0.563950 -0.326070 -0.150439
v 0.617078 -0.320358 0.561210
v 0.361407 -0.320358 0.574389
v 0.361407 -0.320358 0.561210
v 0.617078 -0.320358 0.574389
v 0.361407 0.352663 0.561210
v 0.617078 0.352663 0.561210
v 0.617078 0.352663 0.574389
v 0.361407 0.352663 0.574389
vt -0.011458 0.281250
vt 0.005208 0.281250
vt -0.011458 0.246168
vt 0.090469 0.005208
vt 0.090469 -0.011458
vt 0.000000 0.005208
vt 0.005208 0.246168
vt 0.090469 0.246168
vt 0.009635 0.246168
vt 0.090469 0.281250
vt 0.000000 -0.011458
vt -0.090469 0.281250
vt 0.000000 0.281250
vt -0.090469 0.246168
vt -0.090469 -0.011458
vt -0.090469 0.005208
vt -0.009635 -0.011458
vt 0.000000 0.281250
vt 0.011458 0.281250
vt 0.011458 0.000000
vt -0.005208 0.281250
vt -0.009635 0.246168
vt -0.009635 0.005208
vt 0.009635 0.033381
vt 0.000000 0.000000
vt -0.005208 0.000000
vt -0.009635 0.033381
vt -0.011458 0.246168
vt 0.005208 0.246168
vt -0.011458 0.033381
vt 0.090469 0.033381
vt 0.000000 0.000000
vt 0.000000 0.005208
vt 0.000000 -0.011458
vt -0.090469 0.005208
vt 0.005208 0.033381
vt 0.009635 -0.011458
vt 0.009635 0.005208
vt 0.090469 -0.011458
vt 0.090469 0.000000
vt -0.090469 0.033381
vt -0.090469 -0.011458
vt -0.090469 0.000000
vt 0.090469 0.005208
vt -0.011458 0.000000
vt -0.011458 0.033381
vt 0.005208 0.000000
vt 0.005208 0.033381
vt 0.000000 0.000000
vt 0.000000 0.000000
vt 0.000000 0.000000
vt 0.000000 0.000000
vt 0.000000 0.000000
vt 0.000000 0.000000
vt 0.000000 0.000000
vt 0.000000 0.000000
vt 0.000000 0.000000
vt 0.000000 0.000000
vt 0.000000 0.000000
vt 0.000000 0.000000
vt 0.000000 0.000000
vt 0.000000 0.000000
vt 0.000000 0.000000
vt 0.000000 0.000000
vt 0.000000 0.000000
vt 0.000000 0.000000
vt 0.000000 0.000000
vt 0.000000 0.000000
vt 0.000000 0.000000
vt 0.000000 0.000000
vt 0.000000 0.000000
vt 0.000000 0.000000
vt 0.000000 0.000000
vt 0.000000 0.000000
vt 0.000000 0.000000
vt 0.000000 0.000000
vt 0.000000 0.000000
vt 0.000000 0.000000
vt 0.000000 0.000000
vt 0.000000 0.000000
vt 0.000000 0.000000
vt 0.000000 0.000000
vt 0.000000 0.000000
vt 0.000000 0.000000
vt 0.000000 0.000000
vt 0.000000 0.000000
vt 0.000000 0.000000
vt 0.000000 0.000000
vt 0.000000 0.000000
vt 0.000000 0.000000
vt 0.000000 0.000000
vt 0.000000 0.000000
vt 0.000000 0.000000
vt 0.000000 0.000000
vt 0.000000 0.000000
vt 0.000000 0.000000
vt 0.000000 0.000000
vt 0.000000 0.000000
vt 0.000000 0.000000
vt 0.000000 0.000000
vt 0.000000 0.000000
vt 0.000000 0.000000
vt 0.000000 0.000000
vt 0.000000 0.000000
vt 0.000000 0.000000
vt 0.000000 0.000000
vt 0.000000 0.000000
vt 0.000000 0.000000
vt 0.000000 0.000000
vt 0.000000 0.000000
vt 0.000000 0.000000
vt 0.000000 0.000000
vt 0.000000 0.000000
vt 0.000000 0.000000
vt 0.000000 0.000000
vt 0.000000 0.000000
vt 0.000000 0.000000
vt 0.000000 0.000000
vt 0.000000 0.000000
vt 0.000000 0.000000
vt 0.000000 0.000000
vt 0.000000 0.000000
vn -1.0000 0.0000 0.0000
vn 0.0000 1.0000 0.0000
vn 0.0000 0.0000 1.0000
vn 0.0000 0.0000 -1.0000
vn 0.0000 -1.0000 0.0000
vn 1.0000 0.0000 0.0000
vn 0.0000 0.0655 -0.9979
vn 0.0000 0.1305 -0.9914
vn 0.0000 -0.0655 -0.9979
vn 0.0000 -0.1305 -0.9914
vn 0.0000 0.2587 -0.9659
vn 0.0000 -0.2587 -0.9659
vn 0.0000 0.2587 -0.9660
vn 0.0000 -0.2587 -0.9660
vn 0.0000 -0.3826 -0.9239
vn 0.0000 0.3826 -0.9239
vn 0.0000 0.3831 -0.9237
vn 0.0000 -0.5000 -0.8660
vn 0.0000 0.4999 -0.8661
vn 0.0000 -0.6089 -0.7932
vn 0.0000 0.6088 -0.7933
vn 0.0000 -0.7071 -0.7071
vn -1.0000 0.0001 0.0000
vn 0.0000 0.7073 -0.7070
vn 0.0000 -0.7932 -0.6089
vn -1.0000 -0.0001 0.0000
vn 0.0000 0.7933 -0.6088
vn 0.0000 0.7934 -0.6088
vn 1.0000 -0.0002 0.0000
vn 0.0000 -0.8660 -0.5000
vn 0.0000 0.8659 -0.5002
vn 1.0000 0.0001 0.0000
vn 0.0000 -0.9240 -0.3825
vn 0.0000 0.9239 -0.3827
vn 0.0000 0.9238 -0.3828
vn 0.0000 -0.9239 -0.3825
vn 0.0000 -0.9659 -0.2589
vn -1.0000 0.0003 -0.0000
vn 0.0000 0.9660 -0.2587
vn 0.0000 -0.9659 -0.2590
vn 0.0000 -0.9914 -0.1307
vn 0.0000 0.9914 -0.1305
vn 0.0000 -0.9914 -0.1308
vn 0.0000 -0.9979 -0.0655
vn 0.0000 0.9979 -0.0655
vn 1.0000 -0.0001 0.0000
vn 0.0000 -0.9979 -0.0651
vn 0.0000 -0.9978 -0.0656
vn 0.0000 -0.9979 -0.0648
usemtl material_0_0.041
s 1
f 1/1/1 2/2/1 3/3/1
f 2/4/2 1/5/2 4/6/2
f 5/7/1 3/3/1 2/2/1
f 3/8/3 6/9/3 1/10/3
f 7/11/2 4/6/2 1/5/2
f 2/12/4 4/13/4 5/14/4
f 3/15/5 5/16/5 6/17/5
f 7/18/3 1/10/3 6/9/3
f 7/19/6 8/20/6 4/21/6
f 5/14/4 4/13/4 9/22/4
f 9/23/5 6/17/5 5/16/5
f 6/9/3 10/24/3 7/18/3
f 7/18/3 10/24/3 8/25/3
f 11/26/6 4/21/6 8/20/6
f 9/22/4 4/13/4 12/27/4
f 6/28/1 9/29/1 10/30/1
f 10/24/3 13/31/3 8/25/3
f 11/32/4 12/27/4 4/13/4
f 11/33/5 8/34/5 14/35/5
f 12/36/1 10/30/1 9/29/1
f 10/37/2 12/38/2 13/39/2
f 15/40/3 8/25/3 13/31/3
f 12/27/4 11/32/4 16/41/4
f 15/42/5 14/35/5 8/34/5
f 14/43/4 16/41/4 11/32/4
f 16/44/2 13/39/2 12/38/2
f 15/45/1 13/46/1 14/47/1
f 16/48/1 14/47/1 13/46/1
usemtl material_0_0.042
f 17/49/4 18/50/4 19/51/4
f 18/50/4 17/49/4 20/52/4
f 18/50/1 21/53/1 19/51/1
f 19/51/7 22/54/8 17/49/7
f 23/55/6 20/52/6 17/49/6
f 20/52/9 24/56/10 18/50/9
f 24/56/1 21/53/1 18/50/1
f 19/51/1 21/53/1 25/57/1
f 22/54/8 19/51/7 25/57/8
f 23/55/6 17/49/6 22/54/6
f 23/55/6 26/58/6 20/52/6
f 24/56/10 20/52/9 26/58/10
f 27/59/1 21/53/1 24/56/1
f 25/57/1 21/53/1 28/60/1
f 28/60/11 22/54/8 25/57/8
f 23/55/6 22/54/6 29/61/6
f 23/55/6 30/62/6 26/58/6
f 26/58/10 27/59/12 24/56/10
f 31/63/1 21/53/1 27/59/1
f 28/60/1 21/53/1 32/64/1
f 22/54/8 28/60/11 29/61/13
f 23/55/6 29/61/6 33/65/6
f 23/55/6 34/66/6 30/62/6
f 27/59/12 26/58/10 30/62/14
f 35/67/1 21/53/1 31/63/1
f 30/62/14 31/63/15 27/59/12
f 32/64/1 21/53/1 36/68/1
f 33/65/16 28/60/11 32/64/17
f 28/60/11 33/65/16 29/61/13
f 23/55/6 33/65/6 37/69/6
f 23/55/6 38/70/6 34/66/6
f 31/63/15 30/62/14 34/66/15
f 39/71/1 21/53/1 35/67/1
f 34/66/15 35/67/18 31/63/15
f 36/68/1 21/53/1 40/72/1
f 37/69/19 32/64/17 36/68/19
f 32/64/17 37/69/19 33/65/16
f 23/55/6 37/69/6 41/73/6
f 23/55/6 42/74/6 38/70/6
f 35/67/18 34/66/15 38/70/18
f 43/75/1 21/53/1 39/71/1
f 38/70/18 39/71/20 35/67/18
f 40/72/1 21/53/1 44/76/1
f 41/73/21 36/68/19 40/72/21
f 36/68/19 41/73/21 37/69/19
f 23/55/6 41/73/6 45/77/6
f 23/55/6 46/78/6 42/74/6
f 39/71/20 38/70/18 42/74/20
f 47/79/1 21/53/1 43/75/1
f 42/74/20 43/75/22 39/71/20
f 44/76/1 21/53/1 48/80/23
f 45/77/24 40/72/21 44/76/24
f 40/72/21 45/77/24 41/73/21
f 23/55/6 45/77/6 49/81/6
f 23/55/6 50/82/6 46/78/6
f 43/75/22 42/74/20 46/78/22
f 51/83/1 21/53/1 47/79/1
f 46/78/22 47/79/25 43/75/22
f 48/80/23 21/53/1 52/84/26
f 48/80/27 45/77/24 44/76/24
f 45/77/24 48/80/27 49/81/28
f 23/55/6 49/81/6 53/85/29
f 23/55/6 54/86/6 50/82/6
f 47/79/25 46/78/22 50/82/25
f 55/87/26 21/53/1 51/83/1
f 50/82/25 51/83/30 47/79/25
f 52/84/26 21/53/1 56/88/23
f 52/84/31 49/81/28 48/80/27
f 49/81/28 52/84/31 53/85/31
f 23/55/6 53/85/29 57/89/32
f 23/55/6 58/90/6 54/86/6
f 51/83/30 50/82/25 54/86/30
f 59/91/1 21/53/1 55/87/26
f 54/86/30 55/87/33 51/83/30
f 56/88/23 21/53/1 60/92/23
f 56/88/34 53/85/31 52/84/31
f 53/85/31 56/88/34 57/89/35
f 23/55/6 57/89/32 61/93/32
f 23/55/6 62/94/6 58/90/6
f 55/87/33 54/86/30 58/90/36
f 63/95/1 21/53/1 59/91/1
f 58/90/36 59/91/37 55/87/33
f 60/92/23 21/53/1 64/96/38
f 60/92/39 57/89/35 56/88/34
f 57/89/35 60/92/39 61/93/39
f 23/55/6 61/93/32 65/97/29
f 23/55/6 66/98/6 62/94/6
f 59/91/37 58/90/36 62/94/40
f 67/99/26 21/53/1 63/95/1
f 62/94/40 63/95/41 59/91/37
f 64/96/38 21/53/1 68/100/1
f 64/96/42 61/93/39 60/92/39
f 61/93/39 64/96/42 65/97/42
f 23/55/6 65/97/29 69/101/6
f 70/102/6 66/98/6 23/55/6
f 63/95/41 62/94/40 66/98/43
f 67/99/26 71/103/1 21/53/1
f 66/98/43 67/99/44 63/95/41
f 21/53/2 69/101/2 68/100/2
f 68/100/45 65/97/42 64/96/42
f 65/97/42 68/100/45 69/101/45
f 69/101/2 21/53/2 23/55/2
f 70/102/6 72/104/46 66/98/6
f 23/55/3 73/105/3 70/102/3
f 71/103/1 67/99/26 74/106/1
f 71/103/3 75/107/3 21/53/3
f 67/99/44 66/98/43 72/104/47
f 21/53/3 76/108/3 23/55/3
f 72/104/46 70/102/6 77/109/6
f 23/55/3 78/110/3 73/105/3
f 75/107/3 70/102/3 73/105/3
f 72/104/47 74/106/48 67/99/44
f 77/109/5 71/103/5 74/106/5
f 75/107/3 71/103/3 70/102/3
f 76/108/3 21/53/3 75/107/3
f 23/55/3 76/108/3 78/110/3
f 71/103/5 77/109/5 70/102/5
f 74/106/48 72/104/47 77/109/49
f 79/111/1 73/105/1 78/110/1
f 80/112/2 75/107/2 73/105/2
f 75/107/6 81/113/6 76/108/6
f 76/108/5 79/111/5 78/110/5
f 73/105/1 79/111/1 80/112/1
f 75/107/2 80/112/2 82/114/2
f 81/113/6 75/107/6 82/114/6
f 79/111/5 76/108/5 81/113/5
f 79/111/3 82/114/3 80/112/3
f 82/114/3 79/111/3 81/113/3
usemtl material_0_0.043
f 83/115/5 84/116/5 85/117/5
f 84/116/5 83/115/5 86/118/5
f 84/116/1 87/119/1 85/117/1
f 87/119/4 83/115/4 85/117/4
f 88/120/6 86/118/6 83/115/6
f 89/121/3 84/116/3 86/118/3
f 87/119/1 84/116/1 90/122/1
f 83/115/4 87/119/4 88/120/4
f 86/118/6 88/120/6 89/121/6
f 84/116/3 89/121/3 90/122/3
f 89/121/2 87/119/2 90/122/2
f 87/119/2 89/121/2 88/120/2
