# Blender v2.83.2 OBJ File: 'obj.blend'
# www.blender.org
mtllib handle.003.mtl
o handle.003_Cube.012
v -0.114910 -0.376663 2.001410
v -0.114910 0.376663 2.001410
v 2.464306 -0.376663 2.001410
v 2.464306 0.376663 2.001410
v -0.107970 0.373312 2.007827
v -0.107970 -0.386634 2.007827
v -0.107970 0.373312 1.227773
v -0.107970 -0.386634 1.227773
vt 0.625000 0.500000
vt 0.875000 0.500000
vt 0.875000 0.750000
vt 0.625000 0.750000
vt 0.000000 0.000000
vt 1.000000 0.000000
vt 1.000000 1.000000
vt 0.000000 1.000000
vn 0.0000 0.0000 1.0000
vn 1.0000 0.0000 0.0000
usemtl None
s off
f 4/1/1 2/2/1 1/3/1 3/4/1
f 5/5/2 6/6/2 8/7/2 7/8/2
