# Blender v2.83.2 OBJ File: 'obj.blend'
# www.blender.org
mtllib handle.001.mtl
o handle.001_Cube.010
v -0.114910 -0.376663 -1.987862
v -0.114910 0.376663 -1.987862
v 2.464306 -0.376663 -1.987862
v 2.464306 0.376663 -1.987862
v -0.107970 0.373312 -1.227785
v -0.107970 -0.386634 -1.227785
v -0.107970 0.373312 -2.007838
v -0.107970 -0.386634 -2.007838
vt 0.125000 0.500000
vt 0.375000 0.500000
vt 0.375000 0.750000
vt 0.125000 0.750000
vt 0.000000 0.000000
vt 1.000000 0.000000
vt 1.000000 1.000000
vt 0.000000 1.000000
vn 0.0000 0.0000 -1.0000
vn 1.0000 0.0000 0.0000
usemtl None
s off
f 2/1/1 4/2/1 3/3/1 1/4/1
f 5/5/2 6/6/2 8/7/2 7/8/2
